<svg viewBox="0 0 256 256" fill="none" xmlns="http://www.w3.org/2000/svg">
<rect width="256" height="256" fill="white"/>
<path d="M187.668 111.118L183.722 82.7318C176.433 78.4998 162.091 69.3304 129.881 69.3304C84.0799 69.3304 57.9214 105.182 55.5851 133.987C53.4533 160.27 64.708 214.866 136.228 214.866C197.607 214.866 211.482 159.291 204.881 138.985C204.771 138.645 205.24 137.175 205.118 136.855C205.118 136.855 204.098 136.645 204.132 137.026C206.482 163.523 187.511 206.791 145.597 208.894C98.3769 211.264 69.6946 181.508 69.6946 142.905C69.6946 104.302 99.0811 74.738 132.467 74.738C165.917 74.738 182.506 97.7067 185.682 111.118H187.668Z" fill="#737373"/>
<path d="M231.35 87.6292H190.802V89.3559C201.108 88.307 204.551 96.039 204.984 100.036C204.914 131.906 204.843 197.112 204.709 205.317C203.965 251.053 168.641 243.524 165.808 242.916C163.541 242.431 164.225 244.303 165.038 244.544C200.58 255.069 216.319 228.394 217.32 205.317V100.036C217.32 90.9832 226.673 89.1439 231.35 89.3559V87.6292Z" fill="#004AAD"/>
<path d="M65.1976 9.09111H24.6501V10.8179C34.9558 9.76894 38.3987 17.501 38.832 21.4981C38.7615 53.3679 38.3876 118.575 38.5568 126.779C38.7259 134.982 29.8271 137.448 24.7347 136.942V138.713C31.744 137.531 57.8381 147.634 60.4161 149.035C62.9942 150.436 106.807 175.952 137.843 176.395C166.326 176.802 184.224 160.46 184.448 160.148C184.65 159.867 184.524 159.15 183.73 159.34C178.884 160.498 164.922 165.776 149.684 165.776C129.584 165.776 75.3786 147.875 62.8058 143.376C52.7475 139.776 51.1673 134.43 51.1673 132.211V21.4981C51.1673 12.4452 60.5209 10.6059 65.1976 10.8179V9.09111Z" fill="#AD9551"/>
</svg>
